<svg xmlns="http://www.w3.org/2000/svg" viewBox="0 0 227.5 300"><path fill="#e87200" d="M51.08 240.17c7.24 5.33 16.63 11.09 30.18 15.2v-30.08c-17.57-6.41-30.36-18.38-39.18-36.4H18.66l-8.4 66.44h26.51l10.99-17.61 3.32 2.44Zm168.79-43.78c0-20.79-8.94-37.19-25.86-47.42l-5.04-3.05 4.84-3.36c8.88-6.16 15.93-13.67 19.57-20.65-23.58 2.42-61.6-.52-88.06-4.91-44.96-6.87-76.63-14.15-74.32-45.5 1.51-20.44 23.47-33.38 57.31-33.75 38.39-.36 62.88 12.94 77.12 42.02h23.41l8.4-66.44h-26.51l-10.99 17.61-3.32-2.44c-13.19-9.72-33.43-20.86-73.15-20.86C56.91 7.63 7.63 30.29 7.63 72.28c0 20.79 8.94 37.19 25.86 47.42l5.04 3.05-4.84 3.36c-8.88 6.16-15.93 13.67-19.57 20.65 23.59-2.41 61.61.52 88.06 4.91 44.95 6.87 76.63 14.15 74.32 45.5-1.05 14.29-12.13 24.9-30.25 30.12v30.86c0 .42.05.78.07 1.18 38.67-5.98 73.55-27.62 73.55-62.94Z"/><path fill="#8ab7e9" d="M126.52 109.46c3.82.63 7.88 1.23 12.1 1.79v-7.22c0-11.78 4.92-20.12 10.4-23.99l-.67-10.23h-69.2l-.67 10.23c5.17 3.64 9.78 11.29 10.3 22 9.98 2.78 22.51 5.08 37.74 7.41Zm12.1 148.69v-91.57c-9.96-2.77-22.46-5.06-37.63-7.38-3.82-.63-7.88-1.23-12.1-1.79v100.73c0 11.77-4.91 20.12-10.4 23.99l.67 10.23h69.2l.67-10.23c-5.49-3.86-10.4-12.21-10.4-23.99Z"/><path fill="#323e48" d="M202.62 145.53c10.61-8.38 18.08-18.34 20.35-27.31l1.44-5.69-5.79.99c-17.06 2.92-46.65 1.65-72.38-1.32v-8.16c0-10.7 4.98-16.88 8.33-18.42l2.38-1.1-1.46-22.33h-83.5l-1.45 22.33 2.38 1.1c2.84 1.31 6.83 6 7.98 13.92-16.1-5.84-23.29-13.86-22.29-27.46 1.42-19.28 26.65-26.42 49.78-26.68 46.45-.5 62.52 21 71.15 39.79l1.02 2.22h35L225.9 5.7h-39.4l-8.9 14.26C163.43 10.2 142.03 0 103.28 0 72.74 0 46.51 7.63 27.43 22.06 10 35.24 0 53.54 0 72.28c0 21.29 8.79 39.15 24.88 50.86-10.61 8.39-18.08 18.34-20.35 27.32l-1.44 5.69 5.78-.99c17.06-2.91 46.65-1.65 72.38 1.32v60.6c-18.71-7.66-27.61-21.2-33.3-33.58l-1.02-2.22h-35L1.6 262.97H41l8.9-14.26c7.65 5.27 17.44 10.65 30.9 14.5-1.26 7.57-5.11 12.08-7.88 13.36l-2.38 1.1L71.99 300h83.51l1.46-22.33-2.38-1.1c-2.27-1.05-5.26-4.28-6.97-9.55 20.58-2.94 38.45-9.82 52.46-20.41 17.43-13.18 27.43-31.49 27.43-50.22 0-21.29-8.79-39.15-24.88-50.86Zm-53.6 136.61-.67 10.23h-69.2l-.67-10.23c5.49-3.86 10.4-12.21 10.4-23.99V157.42c4.22.56 8.28 1.16 12.1 1.79 15.17 2.32 27.67 4.61 37.63 7.38v91.57c0 11.77 4.92 20.12 10.4 23.99ZM10.26 255.33l8.4-66.44h23.41c8.82 18.02 21.61 29.99 39.18 36.4v30.08c-13.54-4.12-22.93-9.87-30.18-15.2l-3.32-2.44-10.99 17.61h-26.5Zm158.63-58.73c-.85 11.55-10.27 18.72-22.64 22.68v-50.27c16.35 5.85 23.65 13.89 22.64 27.59Zm-22.64 61.54v-30.86c18.12-5.22 29.2-15.83 30.25-30.12 2.31-31.35-29.36-38.64-74.32-45.5-26.45-4.39-64.47-7.31-88.06-4.91 3.64-6.97 10.69-14.49 19.57-20.65l4.84-3.36-5.04-3.05C16.57 109.45 7.63 93.05 7.63 72.27c0-41.98 49.28-64.64 95.65-64.64 39.72 0 59.96 11.15 73.15 20.86l3.32 2.44 10.99-17.61h26.51l-8.4 66.44h-23.41c-14.24-29.08-38.73-42.38-77.12-42.02-33.84.37-55.81 13.3-57.31 33.75-2.31 31.35 29.36 38.64 74.32 45.5 26.46 4.39 64.48 7.33 88.06 4.91-3.64 6.98-10.69 14.49-19.57 20.65l-4.84 3.36 5.04 3.05c16.92 10.24 25.86 26.64 25.86 47.42 0 35.32-34.87 56.96-73.55 62.94-.02-.4-.07-.77-.07-1.18ZM78.48 80.05l.67-10.23h69.2l.67 10.23c-5.49 3.86-10.4 12.21-10.4 23.99v7.22c-4.22-.56-8.28-1.16-12.1-1.79-15.23-2.32-27.75-4.63-37.74-7.41-.52-10.71-5.13-18.37-10.3-22Zm142.55 179.41v-6.3l-2.76 4.14h-.05l-2.74-4.12v6.28h-1.51v-8.79h1.64l2.66 4.16 2.66-4.16h1.64v8.79h-1.54Zm-11.45 0v-7.36h2.77v-1.43h-7.09v1.43h2.77v7.36h1.55Z"/></svg>